<?xml version="1.0" standalone="no"?>
<!DOCTYPE svg PUBLIC "-//W3C//DTD SVG 20010904//EN"
 "http://www.w3.org/TR/2001/REC-SVG-20010904/DTD/svg10.dtd">
<svg version="1.0" xmlns="http://www.w3.org/2000/svg"
 width="1460.000000pt" height="695.000000pt" viewBox="0 0 1460.000000 695.000000"
 preserveAspectRatio="xMidYMid meet">
<metadata>
Created by potrace 1.16, written by Peter Selinger 2001-2019
</metadata>
<g transform="translate(0.000000,695.000000) scale(0.100000,-0.100000)"
fill="#000000" stroke="none">
<path d="M10525 6944 c-11 -2 -99 -13 -195 -24 -96 -12 -177 -25 -180 -29 -3
-5 -54 -18 -115 -30 -60 -12 -114 -26 -120 -30 -5 -5 -41 -16 -80 -26 -38 -10
-74 -21 -80 -25 -5 -4 -41 -18 -80 -30 -38 -12 -74 -26 -80 -30 -5 -3 -39 -17
-75 -30 -36 -12 -67 -26 -70 -29 -3 -4 -33 -18 -67 -30 -35 -13 -63 -27 -63
-32 0 -5 -6 -9 -13 -9 -14 0 -184 -83 -204 -100 -6 -5 -33 -20 -60 -32 -26
-13 -50 -26 -53 -29 -3 -4 -25 -17 -50 -29 -25 -12 -47 -26 -50 -30 -3 -4 -19
-15 -37 -24 -36 -18 -125 -77 -133 -87 -3 -3 -23 -16 -45 -28 -22 -12 -56 -33
-75 -46 -19 -14 -56 -39 -82 -57 -27 -18 -60 -43 -75 -55 -16 -13 -31 -23 -35
-23 -4 0 -13 -6 -20 -13 -7 -7 -29 -24 -48 -37 -19 -13 -37 -27 -40 -30 -3 -3
-22 -16 -42 -29 -21 -12 -38 -26 -38 -31 0 -5 -8 -11 -19 -15 -10 -3 -30 -16
-44 -29 -14 -13 -41 -33 -61 -45 -20 -13 -36 -26 -36 -30 0 -4 -16 -16 -35
-27 -19 -10 -35 -22 -35 -25 0 -4 -16 -17 -36 -30 -20 -12 -46 -31 -58 -43
-27 -25 -49 -43 -96 -76 -19 -14 -42 -32 -51 -40 -29 -27 -63 -55 -80 -65 -19
-11 -77 -57 -118 -93 -14 -13 -38 -31 -53 -40 -16 -9 -28 -19 -28 -23 0 -4
-17 -18 -37 -30 -21 -13 -45 -30 -53 -39 -9 -8 -34 -28 -55 -45 -21 -16 -45
-37 -54 -45 -9 -9 -33 -26 -54 -39 -20 -12 -37 -26 -37 -30 0 -4 -12 -14 -28
-23 -15 -9 -41 -28 -57 -42 -17 -14 -37 -31 -45 -38 -8 -7 -31 -24 -50 -38
-19 -13 -37 -27 -40 -30 -3 -3 -21 -17 -40 -30 -19 -13 -37 -27 -40 -30 -3 -3
-21 -17 -40 -30 -19 -13 -37 -27 -40 -30 -3 -3 -21 -17 -40 -30 -19 -14 -44
-32 -54 -42 -11 -10 -28 -20 -38 -24 -10 -3 -18 -9 -18 -14 0 -5 -12 -16 -27
-24 -16 -8 -41 -26 -58 -40 -16 -14 -42 -31 -57 -37 -15 -6 -28 -15 -28 -19 0
-5 -17 -19 -37 -31 -21 -13 -47 -31 -57 -41 -11 -10 -23 -18 -27 -18 -4 0 -14
-6 -21 -13 -7 -7 -31 -24 -53 -37 -22 -13 -43 -29 -47 -35 -4 -6 -25 -20 -48
-30 -22 -10 -40 -22 -40 -26 0 -5 -19 -18 -41 -30 -23 -11 -51 -29 -61 -39
-11 -10 -33 -24 -49 -30 -16 -7 -29 -16 -29 -20 0 -4 -18 -15 -40 -25 -22 -10
-40 -21 -40 -24 0 -4 -21 -18 -47 -31 -26 -14 -54 -31 -61 -38 -8 -7 -28 -20
-45 -29 -18 -9 -34 -19 -37 -22 -3 -3 -27 -17 -55 -31 -27 -14 -54 -30 -60
-36 -5 -6 -25 -17 -42 -24 -18 -7 -33 -16 -33 -20 0 -5 -25 -18 -55 -31 -30
-12 -55 -26 -55 -29 0 -4 -24 -17 -52 -31 -29 -13 -58 -29 -64 -34 -6 -6 -31
-19 -55 -30 -24 -11 -46 -22 -49 -25 -3 -4 -50 -28 -105 -55 -55 -27 -102 -52
-105 -55 -3 -4 -33 -18 -67 -31 -35 -13 -63 -27 -63 -31 0 -3 -30 -16 -67 -29
-37 -12 -73 -28 -80 -34 -6 -7 -41 -20 -77 -30 -37 -10 -66 -21 -66 -26 0 -4
-24 -15 -52 -24 -29 -9 -66 -23 -83 -30 -16 -7 -55 -20 -85 -30 -30 -9 -64
-21 -75 -26 -11 -5 -56 -18 -100 -29 -44 -11 -87 -24 -95 -29 -8 -4 -69 -18
-135 -32 -66 -13 -122 -27 -125 -31 -6 -7 -301 -48 -350 -48 -16 0 -30 -6 -33
-12 -6 -19 -748 -19 -755 0 -2 6 -17 12 -33 12 -49 0 -323 41 -329 49 -3 4
-54 18 -115 31 -60 13 -112 26 -115 30 -3 3 -41 17 -85 29 -44 13 -84 27 -90
31 -5 4 -35 15 -65 25 -30 9 -64 23 -75 29 -11 7 -44 21 -72 31 -29 11 -53 22
-53 26 0 3 -27 16 -60 28 -33 12 -60 26 -60 30 0 4 -25 18 -55 30 -30 13 -55
27 -55 31 0 5 -21 16 -46 26 -25 10 -51 22 -58 28 -6 6 -42 31 -81 55 -38 25
-75 49 -80 55 -6 6 -26 19 -45 30 -19 10 -39 24 -45 30 -5 7 -27 22 -47 35
-21 12 -38 26 -38 31 0 5 -8 11 -18 14 -10 4 -33 19 -50 34 -17 15 -50 43 -73
62 -93 77 -129 111 -274 255 -162 161 -465 522 -465 553 0 5 -9 17 -20 27 -11
10 -20 23 -20 30 0 7 -9 20 -20 30 -20 18 -20 17 -20 -2438 l0 -2457 7300 0
7300 0 0 2919 c0 2641 -2 2921 -16 2935 -8 9 -20 16 -25 16 -6 0 -47 17 -92
39 -140 66 -211 98 -234 105 -13 4 -23 11 -23 14 0 4 -20 14 -46 21 -25 7 -50
19 -57 25 -7 7 -41 22 -77 35 -36 13 -67 27 -70 31 -3 4 -34 17 -70 30 -36 13
-67 26 -70 30 -3 4 -34 18 -70 31 -36 12 -67 26 -70 29 -3 4 -30 15 -60 26
-30 10 -57 22 -60 25 -3 3 -32 16 -65 28 -33 12 -64 26 -70 30 -5 5 -40 18
-77 30 -37 12 -68 25 -70 29 -2 4 -38 18 -80 31 -43 14 -78 27 -78 31 0 3 -36
17 -80 29 -44 13 -80 27 -80 31 0 4 -30 15 -67 24 -37 10 -70 21 -73 26 -3 5
-44 19 -90 32 -47 12 -87 25 -90 29 -3 4 -41 16 -85 28 -44 12 -89 26 -100 31
-11 5 -58 19 -105 30 -47 11 -94 24 -105 29 -11 5 -58 17 -105 27 -47 9 -89
21 -95 25 -5 4 -71 17 -145 30 -74 12 -137 25 -140 29 -5 7 -106 21 -337 45
-102 11 -246 15 -510 14 -202 -1 -377 -3 -388 -5z"/>
</g>
</svg>
