<?xml version="1.0" standalone="no"?>
<!DOCTYPE svg PUBLIC "-//W3C//DTD SVG 20010904//EN"
 "http://www.w3.org/TR/2001/REC-SVG-20010904/DTD/svg10.dtd">
<svg version="1.0" xmlns="http://www.w3.org/2000/svg"
 width="1460.000000pt" height="1179.000000pt" viewBox="0 0 1460.000000 1179.000000"
 preserveAspectRatio="xMidYMid meet">
<metadata>
Created by potrace 1.16, written by Peter Selinger 2001-2019
</metadata>
<g transform="translate(0.000000,1179.000000) scale(0.100000,-0.100000)"
fill="#222f3f" stroke="none">
<path d="M0 6913 c0 -4875 0 -4876 20 -4858 11 10 20 23 20 30 0 7 9 20 20 30
11 10 20 22 20 27 0 31 303 392 465 553 145 144 181 178 274 255 23 19 56 47
73 62 17 15 40 30 50 34 10 3 18 9 18 14 0 5 17 19 37 31 21 13 43 28 48 35 6
6 26 20 45 30 19 11 39 24 45 30 5 6 42 30 80 55 39 24 75 49 81 55 7 6 33 18
58 28 25 10 46 21 46 26 0 4 25 18 55 31 30 12 55 26 55 30 0 4 27 18 60 30
33 12 60 25 60 28 0 4 24 15 53 26 28 10 61 24 72 31 11 6 45 20 75 29 30 10
60 21 65 25 6 4 46 18 90 31 44 12 82 26 85 29 3 4 55 17 115 30 61 13 112 27
115 31 6 8 280 49 329 49 16 0 31 6 33 13 7 18 749 18 756 0 2 -7 16 -13 32
-13 49 0 344 -41 350 -48 3 -4 59 -18 125 -31 66 -14 127 -28 135 -32 8 -5 51
-18 95 -29 44 -11 89 -24 100 -29 11 -5 45 -17 75 -26 30 -10 69 -23 85 -30
17 -7 54 -21 83 -30 28 -9 52 -20 52 -24 0 -5 29 -16 66 -26 36 -10 71 -23 77
-30 7 -6 43 -22 80 -34 37 -13 67 -26 67 -29 0 -4 28 -18 63 -31 34 -13 64
-27 67 -31 3 -3 50 -28 105 -55 55 -27 102 -51 105 -55 3 -3 25 -14 49 -25 24
-11 49 -24 55 -30 6 -5 35 -21 64 -34 28 -14 52 -27 52 -31 0 -3 25 -17 55
-29 30 -13 55 -26 55 -31 0 -4 15 -13 33 -20 17 -7 37 -18 42 -24 6 -6 33 -22
60 -36 28 -14 52 -28 55 -31 3 -3 19 -13 37 -22 17 -9 37 -22 45 -29 7 -7 35
-24 61 -38 26 -13 47 -27 47 -31 0 -3 18 -14 40 -24 22 -10 40 -21 40 -25 0
-4 13 -13 29 -20 16 -6 38 -20 49 -30 10 -10 38 -28 61 -39 22 -12 41 -25 41
-30 0 -4 18 -16 40 -26 23 -10 44 -24 48 -30 4 -6 25 -22 47 -35 22 -13 46
-30 53 -37 7 -7 17 -13 21 -13 4 0 16 -8 27 -18 10 -10 36 -28 56 -41 21 -12
38 -26 38 -31 0 -4 13 -13 28 -19 15 -6 41 -23 57 -37 17 -14 42 -32 58 -40
15 -8 27 -19 27 -24 0 -5 8 -11 18 -14 10 -4 27 -14 38 -24 10 -10 35 -28 54
-42 19 -13 37 -27 40 -30 3 -3 21 -17 40 -30 19 -13 37 -27 40 -30 3 -3 21
-17 40 -30 19 -13 37 -27 40 -30 3 -3 21 -17 40 -30 19 -14 42 -31 50 -38 8
-7 28 -24 45 -38 16 -14 42 -33 57 -42 16 -9 28 -19 28 -23 0 -4 17 -18 37
-30 21 -13 45 -30 54 -39 9 -8 33 -28 54 -45 21 -16 46 -37 55 -45 8 -9 32
-26 53 -39 20 -12 37 -26 37 -30 0 -4 12 -14 28 -23 15 -9 39 -27 53 -40 41
-36 99 -82 118 -93 17 -10 51 -38 80 -65 9 -8 32 -26 51 -40 47 -33 69 -51 96
-76 12 -12 38 -31 58 -43 20 -13 36 -26 36 -30 0 -3 16 -15 35 -25 19 -11 35
-23 35 -27 0 -4 16 -17 36 -30 20 -12 47 -32 61 -45 14 -13 34 -26 44 -29 11
-4 19 -10 19 -15 0 -5 17 -19 38 -31 20 -13 39 -26 42 -29 3 -3 21 -17 40 -30
19 -13 41 -30 48 -37 7 -7 16 -13 20 -13 4 0 19 -10 35 -23 15 -12 48 -37 75
-55 26 -18 63 -43 82 -57 19 -13 53 -34 75 -46 22 -12 42 -25 45 -28 8 -10 97
-69 133 -87 18 -9 34 -20 37 -24 3 -4 25 -18 50 -30 25 -12 47 -25 50 -29 3
-3 27 -16 53 -29 27 -12 54 -27 60 -32 20 -17 190 -100 204 -100 7 0 13 -4 13
-9 0 -5 28 -19 63 -32 34 -12 64 -26 67 -30 3 -3 34 -17 70 -29 36 -13 70 -27
75 -30 6 -4 42 -18 80 -30 39 -12 75 -26 80 -30 6 -4 42 -15 80 -25 39 -10 75
-21 80 -26 6 -4 60 -18 120 -30 61 -12 112 -25 115 -30 3 -4 79 -17 170 -30
226 -31 858 -39 1099 -14 227 23 335 37 341 45 3 4 66 17 140 29 74 13 140 26
145 30 6 4 48 16 95 25 47 10 94 22 105 27 11 5 58 18 105 29 47 11 94 25 105
30 11 5 56 19 100 31 44 12 82 24 85 28 3 4 43 17 90 29 46 13 87 27 90 32 3
5 36 16 73 26 37 9 67 20 67 24 0 4 36 18 80 31 44 12 80 26 80 29 0 4 35 17
78 31 42 13 78 27 80 31 2 4 33 17 70 29 37 12 72 25 77 30 6 4 37 18 70 30
33 12 62 25 65 28 3 3 30 15 60 25 30 11 57 22 60 26 3 3 34 17 70 29 36 13
67 27 70 31 3 4 34 17 70 30 36 13 67 26 70 30 3 4 34 18 70 31 36 13 70 28
77 35 7 6 32 18 57 25 26 7 46 17 46 21 0 3 10 10 23 14 23 7 94 39 234 105
45 22 86 39 92 39 5 0 17 7 25 16 15 14 16 514 16 5355 l0 5339 -7300 0 -7300
0 0 -4877z"/>
</g>
</svg>
