<?xml version="1.0" standalone="no"?>
<!DOCTYPE svg PUBLIC "-//W3C//DTD SVG 20010904//EN"
 "http://www.w3.org/TR/2001/REC-SVG-20010904/DTD/svg10.dtd">
<svg version="1.0" xmlns="http://www.w3.org/2000/svg"
 width="263.000000pt" height="302.000000pt" viewBox="0 0 263.000000 302.000000"
 preserveAspectRatio="xMidYMid meet">
<metadata>
Created by potrace 1.16, written by Peter Selinger 2001-2019
</metadata>
<g transform="translate(0.000000,302.000000) scale(0.100000,-0.100000)"
fill="#000000" stroke="none">
<path d="M0 1657 l0 -1362 103 -57 c178 -99 354 -165 558 -210 90 -19 133 -22
324 -22 191 0 234 3 325 22 650 141 1167 630 1296 1227 26 120 24 324 -4 438
-68 277 -254 497 -548 647 -118 60 -213 94 -457 161 -441 121 -913 272 -1381
443 -115 42 -210 76 -212 76 -2 0 -4 -613 -4 -1363z"/>
</g>
</svg>
