<?xml version="1.0" standalone="no"?>
<!DOCTYPE svg PUBLIC "-//W3C//DTD SVG 20010904//EN"
 "http://www.w3.org/TR/2001/REC-SVG-20010904/DTD/svg10.dtd">
<svg version="1.0" xmlns="http://www.w3.org/2000/svg"
 width="611.000000pt" height="524.000000pt" viewBox="0 0 611.000000 524.000000"
 preserveAspectRatio="xMidYMid meet">
<g transform="translate(0.000000,524.000000) scale(0.100000,-0.100000)">
<path d="M716 5218 c-3 -13 -12 -61 -20 -108 -39 -207 -133 -691 -192 -988
-35 -178 -69 -356 -75 -395 -6 -40 -23 -137 -39 -217 -33 -164 -160 -818 -191
-985 -11 -60 -29 -155 -39 -210 -31 -163 -70 -438 -137 -955 -19 -146 -29
-723 -14 -755 5 -11 15 -51 22 -90 41 -240 140 -394 305 -472 l79 -38 153 -3
c116 -3 172 0 230 13 176 38 339 95 594 206 86 38 160 69 165 69 5 0 121 61
258 136 138 75 284 155 325 177 41 22 179 102 307 178 127 77 240 142 250 146
10 4 118 69 240 144 122 76 252 155 290 177 193 110 904 575 1217 794 104 73
231 162 282 198 554 387 1311 1037 1369 1177 13 30 15 161 15 929 l0 894
-2695 0 -2695 0 -4 -22z"/>
</g>
</svg>
